<?xml version="1.0" encoding="UTF-8"?>
<!DOCTYPE svg PUBLIC "-//W3C//DTD SVG 1.1//EN" "http://www.w3.org/Graphics/SVG/1.1/DTD/svg11.dtd">
<!-- Creator: CorelDRAW -->
<svg xmlns="http://www.w3.org/2000/svg" xml:space="preserve" width="19mm" height="8mm" version="1.1" style="shape-rendering:geometricPrecision; text-rendering:geometricPrecision; image-rendering:optimizeQuality; fill-rule:evenodd; clip-rule:evenodd"
viewBox="0 0 1900 800"
 xmlns:xlink="http://www.w3.org/1999/xlink"
 xmlns:xodm="http://www.corel.com/coreldraw/odm/2003">
 <defs>
  <style type="text/css">
   <![CDATA[
    .fil0 {fill:#eee}
   ]]>
  </style>
 </defs>
 <g id="Слой_x0020_1">
  <metadata id="CorelCorpID_0Corel-Layer"/>
  <path class="fil0" d="M1737.79 45.35c59.5,0 107.74,48.23 107.74,107.74 0,59.5 -48.24,107.73 -107.74,107.73 -59.5,0 -107.74,-48.23 -107.74,-107.73 0,-59.51 48.24,-107.74 107.74,-107.74zm-12.74 90.23l-19.4 0 0 49.24 -17.69 0 0 -49.24 -19.49 0 0 -14.23 56.58 0 0 14.23zm65.47 49.24l-0.1 -33.64 -16.31 27.38 -7.99 0 -16.32 -26.65 0 32.91 -16.5 0 0 -63.47 14.78 0 22.31 36.63 21.76 -36.63 14.78 0 0.18 63.47 -16.59 0zm-358.44 -140.43l-247.11 0c292.56,508.38 346.43,603.59 413.46,720.89l247.1 0c-138.18,-240.11 -276.01,-480.36 -413.45,-720.89zm-856.82 0.01l330.61 0c206.11,0 352.98,148.9 352.98,354.76 0,176.33 -108.65,323.04 -272.65,359.35l-105.88 -183.99 25.55 0c97.31,0 160.35,-75.4 160.35,-170.06 0,-95.14 -63.35,-167.42 -160.35,-167.42l-219.76 0 -110.85 -192.64zm312.1 720.88l-247.1 0 -290.17 -507.78 122.42 -213.1 414.85 720.88zm-673.3 -296.96l241.99 0 -170.59 296.96 -242 0 170.6 -296.96z"/>
 </g>
</svg>
