<?xml version="1.0" encoding="UTF-8"?>
<!DOCTYPE svg PUBLIC "-//W3C//DTD SVG 1.1//EN" "http://www.w3.org/Graphics/SVG/1.1/DTD/svg11.dtd">
<!-- Creator: CorelDRAW -->
<svg xmlns="http://www.w3.org/2000/svg" xml:space="preserve" width="11mm" height="11mm" version="1.1" style="shape-rendering:geometricPrecision; text-rendering:geometricPrecision; image-rendering:optimizeQuality; fill-rule:evenodd; clip-rule:evenodd"
viewBox="0 0 1100 1100"
 xmlns:xlink="http://www.w3.org/1999/xlink"
 xmlns:xodm="http://www.corel.com/coreldraw/odm/2003">
 <defs>
  <style type="text/css">
   <![CDATA[
    .fil0 {fill:#2B2A29}
   ]]>
  </style>
 </defs>
 <g id="Слой_x0020_1">
  <metadata id="CorelCorpID_0Corel-Layer"/>
  <g id="_1617134726800">
   <path class="fil0" d="M37.4 568.12c-0.04,217.15 263.8,324.51 446.22,340.02 162.75,13.85 335.29,-23.91 458.44,-119.72 26.94,-20.95 75.28,-68.11 90.89,-103.88l-125.67 0.01c-5.17,1.41 -45.99,50.17 -67.73,65.78 -30.53,21.93 -47.24,33.87 -84.43,51.98 -325.13,158.32 -797.43,-65.46 -651.42,-360.01 27.12,-54.7 48.9,-56.75 59.11,-80.52 -58.22,27.3 -125.4,125.12 -125.41,206.34z"/>
   <path class="fil0" d="M378.09 630.71l57.35 0.52 36.79 -195.09c2.95,-16.84 1.34,-25.13 18.57,-25.12l408.91 -0.02c24.42,6.65 45.37,91.98 49.94,110.75l120.21 0c0.66,-30.79 -14.38,-70.07 -26.46,-93.45 -21.62,-41.86 -38.13,-54.96 -48.1,-72.92l-565.54 -0.24 -51.67 275.57z"/>
   <path class="fil0" d="M473.51 740.39l320.35 -0.24c23.07,-3.29 52.17,-44.18 55.45,-53.47l-309.78 -0.21 29.95 -166.78 334.94 0.13c-10,-69.28 -25.21,-56.76 -42.57,-56.76l-329.41 0.02c-14.33,0 -14.86,33.48 -20.04,62.1 -11.36,62.75 -31.94,159.68 -38.89,215.21z"/>
   <path class="fil0" d="M28.11 525.45c13.23,-20.64 5.87,-44.18 52.82,-109.72 119.07,-166.19 420.62,-209.38 610.58,-146.8 161.83,53.32 46.15,65.03 269.19,58.41 -9.46,-16.56 -32.88,-30.22 -48.54,-40.57 -16.52,-10.91 -34.18,-22.21 -54.38,-32.49 -132.57,-67.47 -302.22,-83.22 -448.79,-55.7 -179.92,33.77 -363.67,148.84 -380.88,326.87z"/>
   <path class="fil0" d="M600.86 631.51l457.4 0.03 14.08 -56.51 -456.6 -0.26c-10.32,6.79 -7.94,9.63 -10.7,24.72 -2.21,12.09 -4.07,19.99 -4.18,32.02z"/>
  </g>
 </g>
</svg>
