<?xml version="1.0" encoding="UTF-8"?>
<!DOCTYPE svg PUBLIC "-//W3C//DTD SVG 1.1//EN" "http://www.w3.org/Graphics/SVG/1.1/DTD/svg11.dtd">
<!-- Creator: CorelDRAW -->
<svg xmlns="http://www.w3.org/2000/svg" xml:space="preserve" width="19mm" height="10mm" version="1.1" style="shape-rendering:geometricPrecision; text-rendering:geometricPrecision; image-rendering:optimizeQuality; fill-rule:evenodd; clip-rule:evenodd"
viewBox="0 0 1900 1000"
 xmlns:xlink="http://www.w3.org/1999/xlink"
 xmlns:xodm="http://www.corel.com/coreldraw/odm/2003">
 <defs>
  <style type="text/css">
   <![CDATA[
    .fil0 {fill:#2B2A29}
   ]]>
  </style>
 </defs>
 <g id="Слой_x0020_1">
  <metadata id="CorelCorpID_0Corel-Layer"/>
  <path class="fil0" d="M1125.41 565.05l349.66 0.24 10.9 -56.69 -289.91 -0.08c0.23,-9.95 8.04,-35.44 10.1,-54.28l287.63 0.34 11.73 -56.12 -289.09 -0.74 9.73 -54.04 284.15 0.12c12.68,-8.94 13.27,-40.93 15.6,-57.72l-348.09 0.03 -52.41 278.94z"/>
  <polygon class="fil0" points="369.19,566.19 427.91,566.24 469.76,343.4 683.99,343.58 674.6,394.88 516.89,395.92 506.77,452.63 722.31,452.61 752.08,287 421.77,286.04 "/>
  <path class="fil0" d="M750.2 565.34l294.54 0.08c34.63,0.57 31.9,11.61 41.52,-55.98l-269.54 0 30.26 -166.57c65.8,-4.46 210.45,-2.01 267.94,-1.85l12.13 -54.43 -320.98 -1.52c-11.65,3.94 -54.9,263.64 -55.87,280.27z"/>
  <path class="fil0" d="M971.36 728.29l34.47 2.05c3.46,-17.51 10.84,-56.59 17.31,-76.04l37.1 69.65 23.8 1.25c7.83,-8.84 46.14,-57.2 61.2,-73.28l-17.22 77.98 35.21 0 23.06 -113.22 -55.47 0.34c-1.72,0.01 -13.42,16.26 -54.68,70.17l-26.02 -70.94 -54.93 0.59 -23.83 111.45z"/>
  <path class="fil0" d="M140.99 729.42l34.48 0.67c7.71,-32.85 9.94,-46.08 18.48,-80.77l45.65 79.8 57.5 0.91 22.96 -113.33c-36.51,-0.29 -13.98,-0.93 -33.52,-0.75 -2.83,15.97 -11.41,48.92 -17.59,81.43l-48.94 -80.98 -54.71 0.23 -24.31 112.79z"/>
  <path class="fil0" d="M1342.05 729.9l33.23 -0.46 17.18 -82c17.59,28.33 34.22,54.78 52.53,82.69 21.38,-0.53 3.32,-0.15 51.44,-0.49l24.8 -112.88 -32.12 -0.35 -17.86 80.65c-16.2,-25.75 -39.2,-63.73 -50.31,-80.65l-54.7 0.44 -24.19 113.05z"/>
  <path class="fil0" d="M435.21 693.62c0.38,18.8 -12.39,13.03 -36.8,12.84 -32.74,-0.59 -35.1,-1.76 -37.87,-13.39l-31.41 -0.34c-6.06,46.8 42.96,39.62 70.54,41.3 23.97,-0.57 41.04,-0.54 52.29,-6.07 11.23,-5.53 16.65,-16.64 17.29,-39.5 -1.46,-21.78 -23.76,-28.67 -48.12,-28.55 -41.45,0.2 -47.08,4.73 -46.86,-10.36 -0.67,-14.14 15.73,-13.99 32.57,-13.61 31.04,0.37 36.33,1.62 44.13,15.69 7.27,0.03 10.17,0.13 24.15,0.24 2.67,-37.4 -28.8,-38.28 -65.12,-39.73 -33.04,0.64 -60.76,-2.99 -67.92,34.47 -12.19,63.81 90.87,22.61 93.13,47.01z"/>
  <path class="fil0" d="M681.41 644.49l68.17 0.48c12.06,0.63 7.19,29.97 -21.42,28.5 -15.91,0.28 -35.38,-0.24 -51.96,-0.3 1.74,-9.56 3.48,-19.12 5.21,-28.68zm-52.72 85.37l35.69 0.16 5.71 -27.21c84.62,-2.48 67.1,9.47 64.82,27.19l35.71 0c4.14,-27.22 10.23,-24.79 -1.86,-45.66 18.52,-10.82 33.59,-52.97 7.78,-64.49 -3,-1.34 -11.28,-2.76 -14.91,-3.06l-108.34 -0.13 -24.6 113.2z"/>
  <path class="fil0" d="M1190.74 729.86l127.72 0.1 4.09 -26.37 -90.7 -0.2 3.94 -18.92 85.99 -0.06 3.61 -22.23 -84.76 -0.35c2.69,-12.46 2.7,-12.35 4.35,-19.74 29.89,-0.4 56.06,0.4 88.77,0.86 1.78,-8.82 2.99,-12.13 5.77,-25.84l-124.72 -0.53 -24.06 113.28z"/>
  <path class="fil0" d="M848.97 730.94c50.32,0 88.18,7.73 101.52,-36.63 4.86,-16.16 11.8,-50.61 15.59,-77.9l-33.36 0.01c-14.25,65.1 -3,87.07 -57.25,87.07 -30.68,0 -36.84,-0.28 -30.22,-30.9 3.66,-16.95 7.14,-27.98 12.58,-56.33l-35.12 0.15c-5.36,17.29 -11.92,48.31 -15.31,67.69 -6.99,39.91 3.33,46.84 41.57,46.84z"/>
  <polygon class="fil0" points="494.51,645.69 544.17,645.77 526.8,729.93 562.65,730.01 580.07,645.85 630.53,645.77 635.84,617.22 501.33,616.37 "/>
  <polygon class="fil0" points="1531.93,645.66 1581.58,645.76 1564.22,729.93 1600.06,730.01 1617.39,645.84 1667.95,645.76 1673.09,617.2 1538.78,616.37 "/>
  <path class="fil0" d="M77.51 728.52c39.73,-0.14 21.12,0.2 35.82,-0.06l22.16 -111.33 -33.85 -0.24 -24.13 111.63z"/>
  <path class="fil0" d="M1778.36 692.92c0.38,18.8 -12.39,13.03 -36.8,12.84 -32.74,-0.59 -35.1,-1.76 -37.87,-13.39l-31.41 -0.34c-6.06,46.8 42.96,39.62 70.54,41.3 23.97,-0.57 41.04,-0.54 52.29,-6.07 11.23,-5.53 16.65,-16.64 17.29,-39.5 -1.46,-21.78 -23.76,-28.67 -48.12,-28.55 -41.45,0.2 -47.08,4.73 -46.86,-10.36 -0.67,-14.14 15.73,-13.99 32.57,-13.61 31.04,0.37 36.33,1.62 44.13,15.69 7.27,0.03 10.17,0.13 24.15,0.24 2.67,-37.4 -28.8,-38.28 -65.12,-39.73 -33.04,0.64 -60.76,-2.99 -67.92,34.47 -12.19,63.81 90.87,22.61 93.13,47.01z"/>
 </g>
</svg>
